<svg width="95" height="107" viewBox="0 0 95 107" fill="none" xmlns="http://www.w3.org/2000/svg">
<path d="M53.3207 52.7392V59.2363H41.2522V27.1923H46.558V20.4286H34.5174V39.2277H21.2547V27.1923H27.7626V20.4286H20.7691C19.1071 20.4307 17.5137 21.0916 16.3385 22.2663C15.1633 23.441 14.5021 25.0337 14.5 26.695V39.7409C14.5021 41.4022 15.1633 42.9949 16.3385 44.1696C17.5137 45.3443 19.1071 46.0052 20.7691 46.0073H34.5174V59.7456C34.5226 61.4041 35.1846 62.9931 36.3587 64.1651C37.5327 65.3372 39.1232 65.9969 40.7825 66H53.8023C55.4643 65.9979 57.0577 65.337 58.2329 64.1623C59.4081 62.9876 60.0693 61.3949 60.0714 59.7337V52.7392H53.3207Z" fill="white"/>
<path d="M74.2305 19.9997H60.485V6.26856C60.4829 4.60668 59.8217 3.01347 58.6463 1.83834C57.471 0.663218 55.8775 0.00210631 54.2154 0H41.1944C39.5329 0.00315883 37.9404 0.664734 36.766 1.83975C35.5915 3.01476 34.9308 4.60737 34.9287 6.26856V13.2575H41.6641V6.7382H53.7218V38.8054H48.4314V45.5714H60.485V26.7498H73.7488V38.8054H67.2363V45.5714H74.2305C75.8927 45.5693 77.4861 44.9082 78.6615 43.7331C79.8368 42.558 80.498 40.9648 80.5001 39.3029V26.2682C80.498 24.6064 79.8368 23.0132 78.6615 21.838C77.4861 20.6629 75.8927 20.0018 74.2305 19.9997Z" fill="white"/>
<path d="M12.28 88.06V102H10.46V95.68H3.36V102H1.54V88.06H3.36V94.18H10.46V88.06H12.28ZM25.3877 96.1C25.3877 96.4467 25.3677 96.8133 25.3277 97.2H16.5677C16.6343 98.28 17.001 99.1267 17.6677 99.74C18.3477 100.34 19.1677 100.64 20.1277 100.64C20.9143 100.64 21.5677 100.46 22.0877 100.1C22.621 99.7267 22.9943 99.2333 23.2077 98.62H25.1677C24.8743 99.6733 24.2877 100.533 23.4077 101.2C22.5277 101.853 21.4343 102.18 20.1277 102.18C19.0877 102.18 18.1543 101.947 17.3277 101.48C16.5143 101.013 15.8743 100.353 15.4077 99.5C14.941 98.6333 14.7077 97.6333 14.7077 96.5C14.7077 95.3667 14.9343 94.3733 15.3877 93.52C15.841 92.6667 16.4743 92.0133 17.2877 91.56C18.1143 91.0933 19.061 90.86 20.1277 90.86C21.1677 90.86 22.0877 91.0867 22.8877 91.54C23.6877 91.9933 24.301 92.62 24.7277 93.42C25.1677 94.2067 25.3877 95.1 25.3877 96.1ZM23.5077 95.72C23.5077 95.0267 23.3543 94.4333 23.0477 93.94C22.741 93.4333 22.321 93.0533 21.7877 92.8C21.2677 92.5333 20.6877 92.4 20.0477 92.4C19.1277 92.4 18.341 92.6933 17.6877 93.28C17.0477 93.8667 16.681 94.68 16.5877 95.72H23.5077ZM27.11 96.48C27.11 95.36 27.3367 94.38 27.79 93.54C28.2433 92.6867 28.8633 92.0267 29.65 91.56C30.45 91.0933 31.3367 90.86 32.31 90.86C33.27 90.86 34.1033 91.0667 34.81 91.48C35.5167 91.8933 36.0433 92.4133 36.39 93.04V91.04H38.23V102H36.39V99.96C36.03 100.6 35.49 101.133 34.77 101.56C34.0633 101.973 33.2367 102.18 32.29 102.18C31.3167 102.18 30.4367 101.94 29.65 101.46C28.8633 100.98 28.2433 100.307 27.79 99.44C27.3367 98.5733 27.11 97.5867 27.11 96.48ZM36.39 96.5C36.39 95.6733 36.2233 94.9533 35.89 94.34C35.5567 93.7267 35.1033 93.26 34.53 92.94C33.97 92.6067 33.35 92.44 32.67 92.44C31.99 92.44 31.37 92.6 30.81 92.92C30.25 93.24 29.8033 93.7067 29.47 94.32C29.1367 94.9333 28.97 95.6533 28.97 96.48C28.97 97.32 29.1367 98.0533 29.47 98.68C29.8033 99.2933 30.25 99.7667 30.81 100.1C31.37 100.42 31.99 100.58 32.67 100.58C33.35 100.58 33.97 100.42 34.53 100.1C35.1033 99.7667 35.5567 99.2933 35.89 98.68C36.2233 98.0533 36.39 97.3267 36.39 96.5ZM43.1256 87.2V102H41.3056V87.2H43.1256ZM48.4475 92.54V99C48.4475 99.5333 48.5608 99.9133 48.7875 100.14C49.0142 100.353 49.4075 100.46 49.9675 100.46H51.3075V102H49.6675C48.6542 102 47.8942 101.767 47.3875 101.3C46.8808 100.833 46.6275 100.067 46.6275 99V92.54H45.2075V91.04H46.6275V88.28H48.4475V91.04H51.3075V92.54H48.4475ZM58.9527 90.84C59.7793 90.84 60.526 91.02 61.1927 91.38C61.8593 91.7267 62.3793 92.2533 62.7527 92.96C63.1393 93.6667 63.3327 94.5267 63.3327 95.54V102H61.5327V95.8C61.5327 94.7067 61.2593 93.8733 60.7127 93.3C60.166 92.7133 59.4193 92.42 58.4727 92.42C57.5127 92.42 56.746 92.72 56.1727 93.32C55.6127 93.92 55.3327 94.7933 55.3327 95.94V102H53.5127V87.2H55.3327V92.6C55.6927 92.04 56.186 91.6067 56.8127 91.3C57.4527 90.9933 58.166 90.84 58.9527 90.84Z" fill="#CBCBCB"/>
<path d="M75.6256 92.14C75.6256 93.3 75.2256 94.2667 74.4256 95.04C73.639 95.8 72.4323 96.18 70.8056 96.18H68.1256V102H66.3056V88.06H70.8056C72.379 88.06 73.5723 88.44 74.3856 89.2C75.2123 89.96 75.6256 90.94 75.6256 92.14ZM70.8056 94.68C71.819 94.68 72.5656 94.46 73.0456 94.02C73.5256 93.58 73.7656 92.9533 73.7656 92.14C73.7656 90.42 72.779 89.56 70.8056 89.56H68.1256V94.68H70.8056ZM77.2077 96.48C77.2077 95.36 77.4343 94.38 77.8877 93.54C78.341 92.6867 78.961 92.0267 79.7477 91.56C80.5477 91.0933 81.4343 90.86 82.4077 90.86C83.3677 90.86 84.201 91.0667 84.9077 91.48C85.6143 91.8933 86.141 92.4133 86.4877 93.04V91.04H88.3277V102H86.4877V99.96C86.1277 100.6 85.5877 101.133 84.8677 101.56C84.161 101.973 83.3343 102.18 82.3877 102.18C81.4143 102.18 80.5343 101.94 79.7477 101.46C78.961 100.98 78.341 100.307 77.8877 99.44C77.4343 98.5733 77.2077 97.5867 77.2077 96.48ZM86.4877 96.5C86.4877 95.6733 86.321 94.9533 85.9877 94.34C85.6543 93.7267 85.201 93.26 84.6277 92.94C84.0677 92.6067 83.4477 92.44 82.7677 92.44C82.0877 92.44 81.4677 92.6 80.9077 92.92C80.3477 93.24 79.901 93.7067 79.5677 94.32C79.2343 94.9333 79.0677 95.6533 79.0677 96.48C79.0677 97.32 79.2343 98.0533 79.5677 98.68C79.901 99.2933 80.3477 99.7667 80.9077 100.1C81.4677 100.42 82.0877 100.58 82.7677 100.58C83.4477 100.58 84.0677 100.42 84.6277 100.1C85.201 99.7667 85.6543 99.2933 85.9877 98.68C86.321 98.0533 86.4877 97.3267 86.4877 96.5ZM93.2233 87.2V102H91.4033V87.2H93.2233Z" fill="white"/>
</svg>
